#define measure1mask_width 32
#define measure1mask_height 32
static unsigned char measure1mask_bits[] = {
   0x00, 0x00, 0x00, 0x00, 0x00, 0x00, 0x00, 0x00, 0x00, 0x00, 0x00, 0x00,
   0x00, 0x00, 0x00, 0x00, 0x00, 0xc0, 0x01, 0x00, 0x00, 0xc0, 0x01, 0x00,
   0x00, 0xe0, 0x01, 0x00, 0x00, 0xf0, 0x01, 0x00, 0x00, 0xf8, 0x01, 0x00,
   0x00, 0xfc, 0x01, 0x00, 0x00, 0xde, 0x01, 0x00, 0x00, 0xcf, 0x01, 0x00,
   0x80, 0xc7, 0x01, 0x00, 0xe0, 0x3f, 0x00, 0x00, 0xe0, 0x3f, 0x00, 0x00,
   0xe0, 0x3f, 0x00, 0x00, 0x00, 0x00, 0x00, 0x00, 0x00, 0x00, 0x00, 0x00,
   0x00, 0x00, 0x00, 0x00, 0x00, 0x00, 0x00, 0x00, 0x00, 0x00, 0x00, 0x00,
   0x00, 0x00, 0x00, 0x00, 0x00, 0x00, 0x00, 0x00, 0x00, 0x00, 0x00, 0x00,
   0x00, 0x00, 0x00, 0x00, 0x00, 0x00, 0x00, 0x00, 0x00, 0x00, 0x00, 0x00,
   0x00, 0x00, 0x00, 0x00, 0x00, 0x00, 0x00, 0x00, 0x00, 0x00, 0x00, 0x00,
   0x00, 0x00, 0x00, 0x00, 0x00, 0x00, 0x00, 0x00};
