#define measure2mask_width 32
#define measure2mask_height 32
static unsigned char measure2mask_bits[] = {
   0x00, 0x00, 0x00, 0x00, 0x00, 0x00, 0x00, 0x00, 0x00, 0x00, 0x00, 0x00,
   0x00, 0x00, 0x00, 0x00, 0x00, 0x00, 0x00, 0x00, 0x00, 0x00, 0x00, 0x00,
   0x00, 0x00, 0x00, 0x00, 0x00, 0x00, 0x00, 0x00, 0x00, 0x00, 0x00, 0x00,
   0x00, 0x00, 0x00, 0x00, 0x00, 0x00, 0x00, 0x00, 0x00, 0x00, 0x00, 0x00,
   0x00, 0x00, 0x00, 0x00, 0x00, 0x00, 0x00, 0x00, 0x00, 0x00, 0x00, 0x00,
   0x00, 0x00, 0x00, 0x00, 0x00, 0x00, 0xfc, 0x07, 0x00, 0x00, 0xfc, 0x07,
   0x00, 0x00, 0xfc, 0x07, 0x00, 0x80, 0xe3, 0x01, 0x00, 0x80, 0xf3, 0x00,
   0x00, 0x80, 0x7b, 0x00, 0x00, 0x80, 0x3f, 0x00, 0x00, 0x80, 0x1f, 0x00,
   0x00, 0x80, 0x0f, 0x00, 0x00, 0x80, 0x07, 0x00, 0x00, 0x80, 0x03, 0x00,
   0x00, 0x80, 0x03, 0x00, 0x00, 0x00, 0x00, 0x00, 0x00, 0x00, 0x00, 0x00,
   0x00, 0x00, 0x00, 0x00, 0x00, 0x00, 0x00, 0x00};
